<?xml version="1.0" encoding="UTF-8" standalone="no"?>
<!-- Created with Inkscape (http://www.inkscape.org/) -->

<svg
   width="160mm"
   height="160.19823mm"
   viewBox="0 0 160 160.19823"
   version="1.1"
   id="svg1"
   xml:space="preserve"
   xmlns="http://www.w3.org/2000/svg"
   xmlns:svg="http://www.w3.org/2000/svg"><defs
     id="defs1" /><g
     id="layer1"
     transform="translate(-30,-30.000002)"><circle
       style="display:inline;fill:#ffffff;stroke-width:0.264583"
       id="path11-2"
       cx="110"
       cy="110"
       r="80" /><path
       id="path11"
       style="display:inline;fill:#000000"
       d="m 392.82423,311.42188 0.002,0.004 v -0.004 z m 0.002,0.004 c -0.003,0.0113 -8.40265,32.68363 -2.80078,47.85547 5.60288,15.17447 -20.77734,33.38281 -20.77734,33.38281 l 9.57226,5.60352 -2.10156,6.07031 c 0,0 3.17117,-4.64392 6.75781,0.70312 -1.06737,3.91142 -1.53723,12.31119 3.33203,29.54688 4.08674,14.46569 9.64393,23.30816 15.28321,28.66602 -0.19994,1.59749 -4.47179,36.26214 -9.05469,81.46484 -27.2375,-38.71446 -73.63545,-63.38846 -115.85547,-64.27344 -28.1655,-0.59044 -54.46786,9.40206 -71.96875,32.86914 -37.56794,50.37521 -9.55591,91.13509 2.80859,105.13672 0.27867,1.53846 1.88779,3.26353 5.00977,5.17579 0.003,0.002 0.0879,0.0859 0.0879,0.0859 l 0.0312,-0.0117 c 1.13728,0.6892 2.40383,1.39376 3.96875,2.13477 40.125,19.00002 36.02416,37.54549 46.75,40.75 21.41677,6.39859 39.21629,28.46867 46.625,39.25 3.03954,4.42318 22.04738,-19.66815 12.7168,-20.74414 -10.7448,-0.4571 -42.3418,-33.13085 -25.3418,-21.88086 17,11.24999 17.875,11.00002 33.125,18.125 13.05316,6.09861 27.92849,-22.01353 16.99414,-24.66211 -18.91883,-4.5826 -13.78906,-18.73828 -13.78906,-18.73828 0,0 -7.95464,-23.8664 -21.21289,-31.29102 -13.25826,-7.42461 -0.77616,-56.42249 -4.59571,-47.02148 -5.70311,14.03701 -13.08203,24.57226 -13.08203,24.57226 0,0 -5.44891,-31.78762 -7.1582,-31.35547 -0.4786,0.12095 -0.66503,2.76774 -0.35547,9.34571 0.96937,20.59891 -13.48598,39.45331 -16.00781,42.58008 -8.68772,-4.12146 -69.63512,-34.73199 -10.00586,-56.80469 54.27601,-20.09114 109.91809,40.02188 125.61328,58.79101 17.79032,42.13883 31.91985,119.31135 31.99805,142.38673 0.0433,12.78293 0.2311,23.83362 0.5,33.85742 a 302.36221,302.36221 0 0 0 12.10742,0.86523 302.36221,302.36221 0 0 0 63.72852,-7.57812 c 2.25072,-37.02288 4.46955,-78.22452 6.31836,-128.88477 -2.72448,-25.07694 25.81973,-57.90157 35.19726,-85.9375 13.10022,-39.16566 34.75002,-85.50001 37.5,-90.25 0.0227,-0.042 0.0181,-0.0897 0.0332,-0.13282 14.35166,5.67882 18.55837,13.27301 25.80664,12.33399 22.16693,-2.87187 47.40722,10.04425 58.5625,16.87695 4.57667,2.80317 12.13459,-26.93965 3.17383,-24.125 -10.00067,3.95554 -52.16167,-13.02904 -32.05469,-9.67187 20.10701,3.35713 20.80517,2.77276 37.63476,3.07422 14.4053,0.25814 16.55203,-31.47625 5.48633,-29.44532 -19.14614,3.51402 -20.22265,-11.5039 -20.22265,-11.5039 0,0 -16.97909,-18.56145 -32.11133,-19.94727 -13.71368,-1.25587 -22.01453,-42.30439 -23.19922,-42.44141 -0.12246,-0.014 -0.16809,0.41055 -0.13672,1.36133 0.50351,15.14298 -1.94922,27.76953 -1.94922,27.76953 0,0 -17.9134,-26.81892 -19.29883,-25.72851 -0.38793,0.30527 0.51873,2.79903 3.47852,8.68164 10.14213,20.15612 2.49414,46.20703 2.49414,46.20703 0,0 -35.26813,16.87403 -48.23633,28.89649 -0.001,-3.8e-4 -0.10156,-0.0293 -0.10156,-0.0293 0,0 -39.29493,24.38392 -59.91993,104.20312 -29.54657,-64.80929 -26.41375,-88.75826 -23.0957,-96.55078 4.88924,-5.48164 9.58408,-13.81375 13.1543,-26.45117 5.15263,-18.2387 4.32488,-26.56594 3.13867,-30.16602 3.40275,-4.36419 6.32031,-0.084 6.32031,-0.084 l -2.10156,-6.07031 9.57227,-5.60352 c 0,0 -26.38023,-18.20834 -20.77735,-33.38281 5.60285,-15.17447 -2.80078,-47.85938 -2.80078,-47.85938 0,0 -19.01629,64.94743 -32.33984,52.42774 v -0.0781 c -0.0151,0.0144 -0.0302,0.0249 -0.0449,0.0391 -0.0151,-0.0144 -0.0302,-0.0246 -0.0449,-0.0391 v 0.0781 C 411.8419,376.36801 392.83011,311.4392 392.82618,311.42579 Z m -0.53515,90.17578 c 4.32983,-0.078 10.33544,1.53587 13.66796,9.94531 5.61268,14.16327 -18.93709,-6.6683 -18.80859,-9.04687 0,0 2.17804,-0.84511 5.14063,-0.89844 z m 65.83984,0 c 2.96258,0.0533 5.14063,0.89844 5.14063,0.89844 0.1285,2.37857 -24.42127,23.21014 -18.8086,9.04687 3.33252,-8.40944 9.33811,-10.02327 13.66797,-9.94531 z m 157.28125,26.52344 c 4.39295,-0.007 10.14493,0.9192 15.57422,4.6582 10.85855,7.47797 -24.74843,1.5852 -23.00195,-3.70898 0,0 3.03475,-0.94192 7.42773,-0.94922 z m -160.0957,1.37891 c -2.67515,4.32458 -5.96293,8.6181 -10.00196,12.42382 -5.56497,5.24357 -0.034,7.77494 -19.78906,12.62305 -19.75291,-4.84781 -14.22424,-7.37963 -19.78906,-12.62305 -3.19487,-3.01031 -5.92093,-6.32623 -8.2461,-9.7207 2.7608,2.90714 4.90821,4.34766 4.90821,4.34766 0,0 6.53704,2.33406 10.97265,10.27148 4.36003,7.80219 11.59335,5.04395 11.83985,4.94727 0.24794,0.0971 7.48019,2.85421 11.83984,-4.94727 4.43562,-7.93742 10.97266,-10.27148 10.97266,-10.27148 0,0 3.44325,-2.20247 7.29297,-7.05078 z m -38.85938,16.32812 c 0.61474,0.0378 1.95713,0.6778 3.25195,1.55469 1.55403,1.05245 2.50732,2.0792 2.12891,2.29297 -0.37531,0.21581 -1.94127,-0.46292 -3.49609,-1.51563 -1.55411,-1.05248 -2.50743,-2.07927 -2.12891,-2.29297 0.0544,-0.0302 0.13643,-0.0451 0.24414,-0.0391 z m 17.49024,0.41602 c 0.10696,-0.001 0.18896,0.0152 0.24414,0.0488 0.37606,0.23282 -0.57494,1.21372 -2.125,2.19141 -1.55003,0.97758 -3.11284,1.58242 -3.49219,1.35156 -0.37606,-0.23282 0.57494,-1.21371 2.125,-2.1914 1.29256,-0.81525 2.63315,-1.39325 3.24805,-1.40039 z M 292.74415,619.9629 c 0,0 12.625,1.49997 19.5,12.75 6.875,11.24999 -23.25,-8.62498 -19.5,-12.75 z"
       transform="matrix(0.26458333,0,0,0.26458333,-4.2999972,-17.198435)" /></g></svg>
